<svg xmlns="http://www.w3.org/2000/svg" width="24" height="24" viewBox="0 0 48 48">
  <path fill="#4285F4" d="M24 9.5c3.54 0 6.7 1.22 9.19 3.6l6.85-6.85C35.64 2.34 30.2 0 24 0 14.64 0 6.4 5.42 2.53 13.34l7.98 6.2C12.44 13.48 17.74 9.5 24 9.5z"/>
  <path fill="#34A853" d="M46.5 24.5c0-1.6-.15-3.12-.43-4.59H24v9h12.65c-.55 2.96-2.21 5.45-4.7 7.13l7.2 5.58c4.2-3.88 6.35-9.6 6.35-16.12z"/>
  <path fill="#FBBC05" d="M10.51 28.54A14.5 14.5 0 0 1 9.5 24c0-1.56.27-3.06.76-4.46l-7.98-6.2A23.93 23.93 0 0 0 0 24c0 3.8.91 7.38 2.53 10.66l7.98-6.12z"/>
  <path fill="#EA4335" d="M24 48c6.48 0 11.9-2.13 15.87-5.8l-7.2-5.58C30.99 38.72 27.72 40 24 40c-6.26 0-11.56-3.98-13.49-9.46l-7.98 6.12C6.4 42.58 14.64 48 24 48z"/>
</svg>
